<svg width="501" height="398" viewBox="0 0 501 398" fill="none" xmlns="http://www.w3.org/2000/svg">
<path d="M500.5 377.89H13.4652V397.87H500.5V377.89Z" fill="#688589"/>
<path opacity="0.5" d="M500.5 377.89H13.4652V397.87H500.5V377.89Z" fill="white"/>
<path d="M134.749 163.582C132.366 164.357 130.028 165.261 127.744 166.292C128.992 165.368 130.241 164.431 131.49 163.469C137.059 159.004 142.356 154.208 147.35 149.108C141.493 154.809 135.232 160.08 128.618 164.88C129.521 163.293 130.322 161.65 131.015 159.96C132.202 156.851 132.489 153.716 129.517 152.055C125.87 150.007 121.437 153.067 122.611 158.299C123.316 161.22 124.693 163.935 126.632 166.229C122.321 169.213 117.82 171.912 113.158 174.309L112.708 174.534C113.699 172.827 114.571 171.053 115.318 169.226C116.504 166.129 116.792 162.982 113.819 161.334C110.173 159.273 105.74 162.345 106.913 167.578C107.611 170.462 108.966 173.146 110.872 175.42C105.265 178.18 99.4581 180.528 93.7011 183.076L92.8644 183.45C93.992 182.241 95.0352 180.956 95.9864 179.604C97.8721 176.869 98.8711 173.897 96.3735 171.574C93.3015 168.727 88.2813 170.687 88.1939 176.082C88.1951 179.062 88.8921 181.999 90.2294 184.662C84.8423 187.162 79.7213 190.199 74.944 193.728L74.7941 193.853C75.4395 192.829 76.0273 191.77 76.555 190.681C77.9661 187.671 78.4906 184.574 75.6558 182.688C75.078 182.288 74.4166 182.025 73.7218 181.918C73.027 181.811 72.317 181.864 71.6455 182.072C70.9741 182.28 70.3588 182.638 69.8463 183.119C69.3338 183.6 68.9375 184.192 68.6875 184.849C68.3101 184.26 67.796 183.772 67.1889 183.425C64.3291 181.777 61.5193 183.563 59.1216 186.085C58.4972 186.747 57.8728 187.446 57.3358 188.158C59.1922 182.993 61.5294 178.013 64.3167 173.285C66.9615 174.452 69.8177 175.064 72.7086 175.083C78.4032 175.083 80.8134 170.338 78.0161 167.391C75.7432 165.005 72.5463 165.917 69.5242 167.665C68.525 168.245 67.5578 168.879 66.6269 169.564C69.5255 165.203 72.8151 161.115 76.4551 157.35C78.7983 159.285 81.5273 160.699 84.4599 161.496C89.9921 162.857 93.4763 158.849 91.4657 155.315C89.8423 152.442 86.4705 152.555 83.1612 153.516C81.5853 153.997 80.0383 154.569 78.5281 155.227C80.0391 153.766 81.6001 152.355 83.1736 150.956C85.2592 149.183 87.4071 147.472 89.58 145.799C91.9306 147.673 94.6496 149.03 97.5599 149.782C103.092 151.144 106.564 147.135 104.566 143.601C102.942 140.729 99.5705 140.841 96.2611 141.803C95.4744 142.027 94.7001 142.302 93.9259 142.589C96.8106 140.529 99.7453 138.518 102.668 136.52L105.39 134.659C107.83 136.707 110.698 138.183 113.782 138.98C119.314 140.341 122.786 136.333 120.788 132.799C119.164 129.926 115.792 130.039 112.483 131C111.173 131.393 109.885 131.856 108.624 132.387C109.186 131.987 109.748 131.587 110.298 131.138C111.334 130.401 112.346 129.639 113.357 128.865C114.606 127.928 115.78 126.879 117.004 125.893C117.691 125.343 118.365 124.756 119.027 124.157C121.479 126.224 124.364 127.714 127.469 128.515C133.001 129.876 136.473 125.868 134.475 122.334C132.851 119.461 129.479 119.574 126.17 120.535C124.314 121.108 122.496 121.797 120.725 122.596C122.986 120.498 125.171 118.312 127.232 116.04L127.644 115.565C128.53 114.579 129.417 113.567 130.266 112.543C131.115 111.519 132.202 110.133 133.126 108.896C136.933 103.923 140.057 98.4633 142.417 92.662C139.94 98.3905 136.715 103.765 132.826 108.647C128.977 113.548 124.684 118.084 120.001 122.196L119.489 122.633C120.567 120.789 121.518 118.874 122.336 116.901C123.585 113.804 123.81 110.657 120.838 109.009C117.191 106.948 112.758 110.02 113.932 115.253C114.681 118.353 116.187 121.219 118.315 123.595L117.216 124.544L115.967 125.618C115.231 126.205 114.494 126.767 113.744 127.329L112.496 128.24C111.434 129.027 110.348 129.789 109.261 130.538L107.713 131.6L105.939 132.849C106.968 131.075 107.878 129.235 108.662 127.341C109.848 124.232 110.135 121.097 107.163 119.436C103.517 117.388 99.0834 120.46 100.257 125.68C100.985 128.685 102.419 131.472 104.441 133.81L103.13 134.659L98.2592 137.844L97.3101 138.468L94.6002 140.279L93.4264 141.066C92.1776 141.927 90.9287 142.802 89.6799 143.701C90.7303 141.901 91.6565 140.032 92.4523 138.106C93.6386 135.009 93.9259 131.862 90.9537 130.214C87.3072 128.153 82.8739 131.225 84.0478 136.458C84.7889 139.501 86.2541 142.32 88.3187 144.675C86.1958 146.236 84.1103 147.834 82.0747 149.508C80.5886 150.756 79.115 152.005 77.6914 153.354C78.3177 152.199 78.8724 151.006 79.3523 149.782C80.6011 146.673 80.8259 143.538 77.8537 141.89C74.2072 139.829 69.7739 142.901 70.9478 148.134C71.651 151.016 73.0052 153.699 74.9065 155.976C70.8621 159.999 67.2153 164.403 64.0169 169.126C64.382 167.763 64.6615 166.378 64.8536 164.98C65.2533 161.684 64.7787 158.586 61.4944 157.687C57.4482 156.576 53.8891 160.622 56.2993 165.442C57.6892 168.094 59.6721 170.389 62.0938 172.149C58.9607 177.294 56.3343 182.731 54.2513 188.383C54.2084 187.203 54.0916 186.027 53.9016 184.861C53.3521 181.577 52.0159 178.742 48.6067 178.805C44.4232 178.892 42.1628 183.8 45.8343 187.721C47.8056 189.768 50.2071 191.35 52.8651 192.354C51.4481 196.724 50.2889 201.173 49.3934 205.679C49.256 206.391 49.1437 207.103 49.0063 207.814C48.8564 207.952 48.7066 208.089 48.5692 208.239C48.4193 207.627 48.2445 206.99 48.0447 206.403C46.9957 203.256 45.2349 200.646 41.8881 201.246C37.7545 201.958 36.2684 207.14 40.5144 210.474C42.679 212.118 45.1697 213.281 47.8199 213.884L47.9698 214.246C47.5202 217.63 47.1705 221.039 46.9582 224.461C46.7959 226.959 46.7085 229.569 46.6585 232.129C43.0869 232.129 40.5643 236.05 43.0245 240.296C44.065 242.055 45.3949 243.625 46.9582 244.942C47.2579 249.749 47.7325 254.557 48.3694 259.328C47.8637 258.862 47.2457 258.535 46.5758 258.38C45.906 258.224 45.2072 258.245 44.548 258.441C42.3002 259.053 41.2886 260.864 40.914 263.087C40.126 263.922 39.6803 265.023 39.6652 266.171C37.9918 263.674 36.4183 261.176 34.8823 258.529C37.2227 256.735 39.1624 254.472 40.5768 251.885C43.2743 246.89 40.2397 242.506 36.3184 243.568C33.1339 244.43 32.4221 247.689 32.572 251.173C32.6201 252.495 32.7452 253.812 32.9466 255.119C32.3847 254.158 31.8352 253.184 31.2982 252.222C29.9245 249.724 28.8006 247.227 27.4519 244.729C27.1272 244.117 26.84 243.48 26.5652 242.856C29.2002 241.537 31.5277 239.677 33.3962 237.399C36.9803 232.978 34.8198 228.12 30.7737 228.432C27.4893 228.695 26.1781 231.754 25.6286 235.201C25.3986 236.702 25.2651 238.216 25.229 239.734L24.0551 237.024C21.5587 230.875 19.5013 224.557 17.8985 218.117C20.8741 217.057 23.5779 215.351 25.8159 213.122C29.8246 209.063 28.1637 204.031 24.1051 203.931C20.8082 203.856 19.1973 206.765 18.2981 210.175C17.8565 211.985 17.5229 213.82 17.2991 215.669C16.4374 211.923 15.6881 208.239 15.0637 204.493C14.6391 202.17 14.3644 199.81 14.0647 197.462C17.2693 196.827 20.2881 195.474 22.8937 193.503C27.3894 190.006 26.3904 184.762 22.3817 184.175C19.1223 183.663 17.1492 186.347 15.8255 189.582C15.0456 191.621 14.3908 193.707 13.8648 195.826C13.6151 193.104 13.3279 190.369 13.203 187.634C12.847 181.986 12.8721 176.32 13.2779 170.675C12.7014 176.317 12.5053 181.991 12.691 187.659C12.691 190.269 12.9158 192.866 13.0781 195.476C12.3618 193.703 11.5273 191.98 10.5805 190.319C8.86962 187.459 6.60928 185.323 3.44979 186.572C-0.421509 188.171 -0.758686 193.541 4.09917 195.888C6.96072 197.199 10.0977 197.794 13.2404 197.624C13.4652 199.947 13.6525 202.282 14.0147 204.593C14.5017 208.277 15.1261 211.936 15.8504 215.57C15.0602 214.175 14.1757 212.835 13.203 211.561C11.1424 208.951 8.60737 207.103 5.71014 208.789C2.07611 210.874 2.43826 216.281 7.55837 217.942C10.4624 218.846 13.5389 219.051 16.5373 218.542C17.958 225.054 19.8316 231.459 22.1444 237.711L22.8937 239.584C22.2327 238.709 21.5196 237.875 20.7583 237.087C18.448 234.689 15.763 233.103 12.9657 235.088C9.55646 237.524 10.4681 242.831 15.7256 244.005C18.6406 244.598 21.653 244.512 24.5297 243.755C24.7794 244.392 25.0542 245.004 25.3664 245.653C26.6152 248.226 27.7266 250.861 29.0379 253.383L30.1743 255.544C29.5282 254.976 28.8529 254.443 28.1512 253.945C25.4288 252.035 22.4816 250.986 20.1214 253.446C17.2366 256.48 19.1098 261.526 24.5047 261.688C27.2648 261.761 30.008 261.237 32.547 260.152C34.083 262.949 35.6815 265.709 37.4049 268.419C38.0418 269.456 38.6537 270.48 39.378 271.504C38.3979 270.584 37.3592 269.729 36.2684 268.944C33.5585 267.033 30.5989 265.984 28.2511 268.444C25.3539 271.479 27.2396 276.524 32.6344 276.686C35.7177 276.722 38.7653 276.024 41.5259 274.651C42.4084 275.899 43.3325 277.148 44.2983 278.397C42.2877 280.732 42.9371 284.641 47.0207 286.427C49.0051 287.25 51.1184 287.719 53.2647 287.813L54.039 288.4L54.1763 288.5C56.7543 298.146 59.8135 307.657 63.3426 316.998C64.8495 320.986 66.4396 324.936 68.113 328.849H53.1273V387.955H98.9086V328.836H74.4445C72.359 324.278 70.3609 319.67 68.4877 315.012C65.4281 307.357 62.6557 299.602 60.2331 291.722C60.6426 291.845 61.0597 291.941 61.4819 292.009C62.0369 292.119 62.6052 292.144 63.1678 292.084L62.5184 287.975H62.431H62.0813C61.8565 287.975 61.5568 287.863 61.2945 287.826C60.7208 287.663 60.1611 287.454 59.6211 287.201L58.9718 286.901C61.3784 286.062 63.6126 284.793 65.5655 283.155C69.9113 279.409 68.675 274.288 64.6413 273.851C61.357 273.489 59.5087 276.262 58.3973 279.546C58.0601 280.483 57.7854 281.457 57.5356 282.406C57.3108 281.532 57.0611 280.657 56.8488 279.783C56.1869 277.198 55.6 274.588 55.0006 271.978C57.61 271.148 60.0321 269.816 62.1312 268.057C66.4771 264.31 65.2408 259.203 61.2071 258.766C57.9228 258.404 56.0745 261.176 54.9631 264.46C54.6227 265.415 54.3309 266.386 54.0889 267.37C53.7143 265.459 53.3396 263.561 53.015 261.651C52.7652 260.227 52.5529 258.816 52.3406 257.392C52.2532 255.369 52.2282 253.346 52.2532 251.31C52.2532 250.199 52.2532 249.088 52.3531 247.964C54.7994 248.747 57.3683 249.078 59.9333 248.938C65.6154 248.563 67.7259 243.693 64.7537 240.933C62.331 238.672 59.1965 239.796 56.2868 241.72C54.9799 242.603 53.7287 243.567 52.5404 244.604C52.8859 239.852 53.6041 235.133 54.6883 230.493C55.3356 227.761 56.1361 225.068 57.0861 222.426C59.6962 223.33 62.4578 223.716 65.2158 223.562C70.8979 223.2 73.0084 218.329 70.0362 215.557C67.6135 213.309 64.479 214.421 61.5693 216.356C60.536 217.053 59.5398 217.804 58.5846 218.604C59.6772 216.018 60.9543 213.514 62.406 211.111C65.3116 206.281 68.9422 201.926 73.1707 198.199C75.343 200.211 77.9123 201.747 80.7135 202.707C86.1208 204.48 89.8922 200.734 88.2063 197.062C86.8077 194.078 83.4734 193.94 80.0641 194.652C78.7669 194.932 77.4868 195.287 76.2303 195.714L76.3052 195.639C80.9648 192.002 85.9865 188.855 91.2909 186.248C93.1562 188.703 95.5341 190.723 98.2592 192.167C103.317 194.777 107.638 191.68 106.514 187.784C105.602 184.612 102.343 183.95 98.8462 184.037C97.4823 184.116 96.1234 184.266 94.7751 184.487C100.395 181.827 106.152 179.317 111.684 176.382L111.796 176.32C114.281 178.459 117.225 179.997 120.401 180.815C125.933 182.189 129.417 178.168 127.419 174.634C125.783 171.761 122.424 171.886 119.102 172.835C118.165 173.11 117.229 173.447 116.329 173.797C120.027 171.643 123.612 169.301 127.069 166.779L127.369 167.091C127.362 167.045 127.362 166.999 127.369 166.953C129.872 169.115 132.836 170.674 136.036 171.512C141.568 172.873 145.04 168.864 143.041 165.33C141.431 162.495 138.109 162.62 134.749 163.582ZM47.4328 276.736C46.3089 275.4 45.2349 274.026 44.1734 272.628C44.4356 272.403 44.7104 272.153 44.9851 271.878C46.5413 272.365 48.1523 272.654 49.7805 272.74C49.7805 272.827 49.7805 272.915 49.7805 273.002L50.5423 272.84C50.9294 274.813 51.354 276.774 51.7911 278.734C51.2807 278.073 50.6174 277.546 49.8582 277.198C49.0991 276.85 48.2667 276.691 47.4328 276.736ZM51.5164 229.719C51.1292 231.18 50.7921 232.666 50.4924 234.152C50.436 234.057 50.3689 233.969 50.2926 233.89C50.2926 230.842 50.3425 227.804 50.4424 224.773C50.5298 222.65 50.6797 220.54 50.867 218.417C51.8891 219.469 53.0193 220.411 54.2388 221.227C53.1647 224.001 52.2557 226.837 51.5164 229.719ZM56.6365 215.732C56.6365 215.182 56.7614 214.62 56.7988 214.071C56.7988 213.784 56.7988 213.509 56.7988 213.234C57.2484 213.097 57.698 212.935 58.16 212.747C57.6355 213.734 57.1235 214.72 56.6365 215.732ZM63.1428 205.167C62.9212 204.676 62.6038 204.234 62.2092 203.868C61.8147 203.501 61.3508 203.217 60.845 203.032C57.7729 201.783 55.2628 204.031 53.2772 206.903L53.1898 207.04H52.99C52.7806 206.993 52.5675 206.964 52.3531 206.953C52.3531 206.778 52.3531 206.603 52.4405 206.428C53.2329 201.923 54.2963 197.469 55.625 193.091C58.4918 193.452 61.4022 193.227 64.1793 192.429C65.8777 191.993 67.3652 190.966 68.3753 189.532C68.9303 192.046 69.9741 194.426 71.4473 196.538C68.3841 199.129 65.6007 202.033 63.1428 205.204V205.167Z" fill="#688589"/>
<path opacity="0.5" d="M134.749 163.582C132.366 164.357 130.028 165.261 127.744 166.292C128.992 165.368 130.241 164.431 131.49 163.469C137.059 159.004 142.356 154.208 147.35 149.108C141.493 154.809 135.232 160.08 128.618 164.88C129.521 163.293 130.322 161.65 131.015 159.96C132.202 156.851 132.489 153.716 129.517 152.055C125.87 150.007 121.437 153.067 122.611 158.299C123.316 161.22 124.693 163.935 126.632 166.229C122.321 169.213 117.82 171.912 113.158 174.309L112.708 174.534C113.699 172.827 114.571 171.053 115.318 169.226C116.504 166.129 116.792 162.982 113.819 161.334C110.173 159.273 105.74 162.345 106.913 167.578C107.611 170.462 108.966 173.146 110.872 175.42C105.265 178.18 99.4581 180.528 93.7011 183.076L92.8644 183.45C93.992 182.241 95.0352 180.956 95.9864 179.604C97.8721 176.869 98.8711 173.897 96.3735 171.574C93.3015 168.727 88.2813 170.687 88.1939 176.082C88.1951 179.062 88.8921 181.999 90.2294 184.662C84.8423 187.162 79.7213 190.199 74.944 193.728L74.7941 193.853C75.4395 192.829 76.0273 191.77 76.555 190.681C77.9661 187.671 78.4906 184.574 75.6558 182.688C75.078 182.288 74.4166 182.025 73.7218 181.918C73.027 181.811 72.317 181.864 71.6455 182.072C70.9741 182.28 70.3588 182.638 69.8463 183.119C69.3338 183.6 68.9375 184.192 68.6875 184.849C68.3101 184.26 67.796 183.772 67.1889 183.425C64.3291 181.777 61.5193 183.563 59.1216 186.085C58.4972 186.747 57.8728 187.446 57.3358 188.158C59.1922 182.993 61.5294 178.013 64.3167 173.285C66.9615 174.452 69.8177 175.064 72.7086 175.083C78.4032 175.083 80.8134 170.338 78.0161 167.391C75.7432 165.005 72.5463 165.917 69.5242 167.665C68.525 168.245 67.5578 168.879 66.6269 169.564C69.5255 165.203 72.8151 161.115 76.4551 157.35C78.7983 159.285 81.5273 160.699 84.4599 161.496C89.9921 162.857 93.4763 158.849 91.4657 155.315C89.8423 152.442 86.4705 152.555 83.1612 153.516C81.5853 153.997 80.0383 154.569 78.5281 155.227C80.0391 153.766 81.6001 152.355 83.1736 150.956C85.2592 149.183 87.4071 147.472 89.58 145.799C91.9306 147.673 94.6496 149.03 97.5599 149.782C103.092 151.144 106.564 147.135 104.566 143.601C102.942 140.729 99.5705 140.841 96.2611 141.803C95.4744 142.027 94.7001 142.302 93.9259 142.589C96.8106 140.529 99.7453 138.518 102.668 136.52L105.39 134.659C107.83 136.707 110.698 138.183 113.782 138.98C119.314 140.341 122.786 136.333 120.788 132.799C119.164 129.926 115.792 130.039 112.483 131C111.173 131.393 109.885 131.856 108.624 132.387C109.186 131.987 109.748 131.587 110.298 131.138C111.334 130.401 112.346 129.639 113.357 128.865C114.606 127.928 115.78 126.879 117.004 125.893C117.691 125.343 118.365 124.756 119.027 124.157C121.479 126.224 124.364 127.714 127.469 128.515C133.001 129.876 136.473 125.868 134.475 122.334C132.851 119.461 129.479 119.574 126.17 120.535C124.314 121.108 122.496 121.797 120.725 122.596C122.986 120.498 125.171 118.312 127.232 116.04L127.644 115.565C128.53 114.579 129.417 113.567 130.266 112.543C131.115 111.519 132.202 110.133 133.126 108.896C136.933 103.923 140.057 98.4633 142.417 92.662C139.94 98.3905 136.715 103.765 132.826 108.647C128.977 113.548 124.684 118.084 120.001 122.196L119.489 122.633C120.567 120.789 121.518 118.874 122.336 116.901C123.585 113.804 123.81 110.657 120.838 109.009C117.191 106.948 112.758 110.02 113.932 115.253C114.681 118.353 116.187 121.219 118.315 123.595L117.216 124.544L115.967 125.618C115.231 126.205 114.494 126.767 113.744 127.329L112.496 128.24C111.434 129.027 110.348 129.789 109.261 130.538L107.713 131.6L105.939 132.849C106.968 131.075 107.878 129.235 108.662 127.341C109.848 124.232 110.135 121.097 107.163 119.436C103.517 117.388 99.0834 120.46 100.257 125.68C100.985 128.685 102.419 131.472 104.441 133.81L103.13 134.659L98.2592 137.844L97.3101 138.468L94.6002 140.279L93.4264 141.066C92.1776 141.927 90.9287 142.802 89.6799 143.701C90.7303 141.901 91.6565 140.032 92.4523 138.106C93.6386 135.009 93.9259 131.862 90.9537 130.214C87.3072 128.153 82.8739 131.225 84.0478 136.458C84.7889 139.501 86.2541 142.32 88.3187 144.675C86.1958 146.236 84.1103 147.834 82.0747 149.508C80.5886 150.756 79.115 152.005 77.6914 153.354C78.3177 152.199 78.8724 151.006 79.3523 149.782C80.6011 146.673 80.8259 143.538 77.8537 141.89C74.2072 139.829 69.7739 142.901 70.9478 148.134C71.651 151.016 73.0052 153.699 74.9065 155.976C70.8621 159.999 67.2153 164.403 64.0169 169.126C64.382 167.763 64.6615 166.378 64.8536 164.98C65.2533 161.684 64.7787 158.586 61.4944 157.687C57.4482 156.576 53.8891 160.622 56.2993 165.442C57.6892 168.094 59.6721 170.389 62.0938 172.149C58.9607 177.294 56.3343 182.731 54.2513 188.383C54.2084 187.203 54.0916 186.027 53.9016 184.861C53.3521 181.577 52.0159 178.742 48.6067 178.805C44.4232 178.892 42.1628 183.8 45.8343 187.721C47.8056 189.768 50.2071 191.35 52.8651 192.354C51.4481 196.724 50.2889 201.173 49.3934 205.679C49.256 206.391 49.1437 207.103 49.0063 207.814C48.8564 207.952 48.7066 208.089 48.5692 208.239C48.4193 207.627 48.2445 206.99 48.0447 206.403C46.9957 203.256 45.2349 200.646 41.8881 201.246C37.7545 201.958 36.2684 207.14 40.5144 210.474C42.679 212.118 45.1697 213.281 47.8199 213.884L47.9698 214.246C47.5202 217.63 47.1705 221.039 46.9582 224.461C46.7959 226.959 46.7085 229.569 46.6585 232.129C43.0869 232.129 40.5643 236.05 43.0245 240.296C44.065 242.055 45.3949 243.625 46.9582 244.942C47.2579 249.749 47.7325 254.557 48.3694 259.328C47.8637 258.862 47.2457 258.535 46.5758 258.38C45.906 258.224 45.2072 258.245 44.548 258.441C42.3002 259.053 41.2886 260.864 40.914 263.087C40.126 263.922 39.6803 265.023 39.6652 266.171C37.9918 263.674 36.4183 261.176 34.8823 258.529C37.2227 256.735 39.1624 254.472 40.5768 251.885C43.2743 246.89 40.2397 242.506 36.3184 243.568C33.1339 244.43 32.4221 247.689 32.572 251.173C32.6201 252.495 32.7452 253.812 32.9466 255.119C32.3847 254.158 31.8352 253.184 31.2982 252.222C29.9245 249.724 28.8006 247.227 27.4519 244.729C27.1272 244.117 26.84 243.48 26.5652 242.856C29.2002 241.537 31.5277 239.677 33.3962 237.399C36.9803 232.978 34.8198 228.12 30.7737 228.432C27.4893 228.695 26.1781 231.754 25.6286 235.201C25.3986 236.702 25.2651 238.216 25.229 239.734L24.0551 237.024C21.5587 230.875 19.5013 224.557 17.8985 218.117C20.8741 217.057 23.5779 215.351 25.8159 213.122C29.8246 209.063 28.1637 204.031 24.1051 203.931C20.8082 203.856 19.1973 206.765 18.2981 210.175C17.8565 211.985 17.5229 213.82 17.2991 215.669C16.4374 211.923 15.6881 208.239 15.0637 204.493C14.6391 202.17 14.3644 199.81 14.0647 197.462C17.2693 196.827 20.2881 195.474 22.8937 193.503C27.3894 190.006 26.3904 184.762 22.3817 184.175C19.1223 183.663 17.1492 186.347 15.8255 189.582C15.0456 191.621 14.3908 193.707 13.8648 195.826C13.6151 193.104 13.3279 190.369 13.203 187.634C12.847 181.986 12.8721 176.32 13.2779 170.675C12.7014 176.317 12.5053 181.991 12.691 187.659C12.691 190.269 12.9158 192.866 13.0781 195.476C12.3618 193.703 11.5273 191.98 10.5805 190.319C8.86962 187.459 6.60928 185.323 3.44979 186.572C-0.421509 188.171 -0.758686 193.541 4.09917 195.888C6.96072 197.199 10.0977 197.794 13.2404 197.624C13.4652 199.947 13.6525 202.282 14.0147 204.593C14.5017 208.277 15.1261 211.936 15.8504 215.57C15.0602 214.175 14.1757 212.835 13.203 211.561C11.1424 208.951 8.60737 207.103 5.71014 208.789C2.07611 210.874 2.43826 216.281 7.55837 217.942C10.4624 218.846 13.5389 219.051 16.5373 218.542C17.958 225.054 19.8316 231.459 22.1444 237.711L22.8937 239.584C22.2327 238.709 21.5196 237.875 20.7583 237.087C18.448 234.689 15.763 233.103 12.9657 235.088C9.55646 237.524 10.4681 242.831 15.7256 244.005C18.6406 244.598 21.653 244.512 24.5297 243.755C24.7794 244.392 25.0542 245.004 25.3664 245.653C26.6152 248.226 27.7266 250.861 29.0379 253.383L30.1743 255.544C29.5282 254.976 28.8529 254.443 28.1512 253.945C25.4288 252.035 22.4816 250.986 20.1214 253.446C17.2366 256.48 19.1098 261.526 24.5047 261.688C27.2648 261.761 30.008 261.237 32.547 260.152C34.083 262.949 35.6815 265.709 37.4049 268.419C38.0418 269.456 38.6537 270.48 39.378 271.504C38.3979 270.584 37.3592 269.729 36.2684 268.944C33.5585 267.033 30.5989 265.984 28.2511 268.444C25.3539 271.479 27.2396 276.524 32.6344 276.686C35.7177 276.722 38.7653 276.024 41.5259 274.651C42.4084 275.899 43.3325 277.148 44.2983 278.397C42.2877 280.732 42.9371 284.641 47.0207 286.427C49.0051 287.25 51.1184 287.719 53.2647 287.813L54.039 288.4L54.1763 288.5C56.7543 298.146 59.8135 307.657 63.3426 316.998C64.8495 320.986 66.4396 324.936 68.113 328.849H53.1273V387.955H98.9086V328.836H74.4445C72.359 324.278 70.3609 319.67 68.4877 315.012C65.4281 307.357 62.6557 299.602 60.2331 291.722C60.6426 291.845 61.0597 291.941 61.4819 292.009C62.0369 292.119 62.6052 292.144 63.1678 292.084L62.5184 287.975H62.431H62.0813C61.8565 287.975 61.5568 287.863 61.2945 287.826C60.7208 287.663 60.1611 287.454 59.6211 287.201L58.9718 286.901C61.3784 286.062 63.6126 284.793 65.5655 283.155C69.9113 279.409 68.675 274.288 64.6413 273.851C61.357 273.489 59.5087 276.262 58.3973 279.546C58.0601 280.483 57.7854 281.457 57.5356 282.406C57.3108 281.532 57.0611 280.657 56.8488 279.783C56.1869 277.198 55.6 274.588 55.0006 271.978C57.61 271.148 60.0321 269.816 62.1312 268.057C66.4771 264.31 65.2408 259.203 61.2071 258.766C57.9228 258.404 56.0745 261.176 54.9631 264.46C54.6227 265.415 54.3309 266.386 54.0889 267.37C53.7143 265.459 53.3396 263.561 53.015 261.651C52.7652 260.227 52.5529 258.816 52.3406 257.392C52.2532 255.369 52.2282 253.346 52.2532 251.31C52.2532 250.199 52.2532 249.088 52.3531 247.964C54.7994 248.747 57.3683 249.078 59.9333 248.938C65.6154 248.563 67.7259 243.693 64.7537 240.933C62.331 238.672 59.1965 239.796 56.2868 241.72C54.9799 242.603 53.7287 243.567 52.5404 244.604C52.8859 239.852 53.6041 235.133 54.6883 230.493C55.3356 227.761 56.1361 225.068 57.0861 222.426C59.6962 223.33 62.4578 223.716 65.2158 223.562C70.8979 223.2 73.0084 218.329 70.0362 215.557C67.6135 213.309 64.479 214.421 61.5693 216.356C60.536 217.053 59.5398 217.804 58.5846 218.604C59.6772 216.018 60.9543 213.514 62.406 211.111C65.3116 206.281 68.9422 201.926 73.1707 198.199C75.343 200.211 77.9123 201.747 80.7135 202.707C86.1208 204.48 89.8922 200.734 88.2063 197.062C86.8077 194.078 83.4734 193.94 80.0641 194.652C78.7669 194.932 77.4868 195.287 76.2303 195.714L76.3052 195.639C80.9648 192.002 85.9865 188.855 91.2909 186.248C93.1562 188.703 95.5341 190.723 98.2592 192.167C103.317 194.777 107.638 191.68 106.514 187.784C105.602 184.612 102.343 183.95 98.8462 184.037C97.4823 184.116 96.1234 184.266 94.7751 184.487C100.395 181.827 106.152 179.317 111.684 176.382L111.796 176.32C114.281 178.459 117.225 179.997 120.401 180.815C125.933 182.189 129.417 178.168 127.419 174.634C125.783 171.761 122.424 171.886 119.102 172.835C118.165 173.11 117.229 173.447 116.329 173.797C120.027 171.643 123.612 169.301 127.069 166.779L127.369 167.091C127.362 167.045 127.362 166.999 127.369 166.953C129.872 169.115 132.836 170.674 136.036 171.512C141.568 172.873 145.04 168.864 143.041 165.33C141.431 162.495 138.109 162.62 134.749 163.582ZM47.4328 276.736C46.3089 275.4 45.2349 274.026 44.1734 272.628C44.4356 272.403 44.7104 272.153 44.9851 271.878C46.5413 272.365 48.1523 272.654 49.7805 272.74C49.7805 272.827 49.7805 272.915 49.7805 273.002L50.5423 272.84C50.9294 274.813 51.354 276.774 51.7911 278.734C51.2807 278.073 50.6174 277.546 49.8582 277.198C49.0991 276.85 48.2667 276.691 47.4328 276.736ZM51.5164 229.719C51.1292 231.18 50.7921 232.666 50.4924 234.152C50.436 234.057 50.3689 233.969 50.2926 233.89C50.2926 230.842 50.3425 227.804 50.4424 224.773C50.5298 222.65 50.6797 220.54 50.867 218.417C51.8891 219.469 53.0193 220.411 54.2388 221.227C53.1647 224.001 52.2557 226.837 51.5164 229.719ZM56.6365 215.732C56.6365 215.182 56.7614 214.62 56.7988 214.071C56.7988 213.784 56.7988 213.509 56.7988 213.234C57.2484 213.097 57.698 212.935 58.16 212.747C57.6355 213.734 57.1235 214.72 56.6365 215.732ZM63.1428 205.167C62.9212 204.676 62.6038 204.234 62.2092 203.868C61.8147 203.501 61.3508 203.217 60.845 203.032C57.7729 201.783 55.2628 204.031 53.2772 206.903L53.1898 207.04H52.99C52.7806 206.993 52.5675 206.964 52.3531 206.953C52.3531 206.778 52.3531 206.603 52.4405 206.428C53.2329 201.923 54.2963 197.469 55.625 193.091C58.4918 193.452 61.4022 193.227 64.1793 192.429C65.8777 191.993 67.3652 190.966 68.3753 189.532C68.9303 192.046 69.9741 194.426 71.4473 196.538C68.3841 199.129 65.6007 202.033 63.1428 205.204V205.167Z" fill="white"/>
<path d="M489.735 390.44C489.735 393.437 421.151 395.86 336.557 395.86C251.962 395.86 183.365 393.437 183.365 390.44C183.365 387.443 251.95 385.033 336.557 385.033C421.163 385.033 489.735 387.455 489.735 390.44Z" fill="#688589"/>
<path opacity="0.3" d="M489.735 390.44C489.735 393.437 421.151 395.86 336.557 395.86C251.962 395.86 183.365 393.437 183.365 390.44C183.365 387.443 251.95 385.033 336.557 385.033C421.163 385.033 489.735 387.455 489.735 390.44Z" fill="#2E353A"/>
<path d="M325.53 341.811C325.53 341.811 333.022 373.831 329.738 379.101C325.505 385.982 280.36 390.128 280.36 390.128H379.903C379.903 390.128 392.391 386.631 388.644 376.603C385.735 368.836 371.81 341.811 371.81 341.811H325.53Z" fill="white" stroke="#2E353A" stroke-linecap="round" stroke-linejoin="round"/>
<path d="M323.357 341.811C323.357 341.811 331.299 374.106 327.565 379.101C323.831 384.096 280.36 387.905 280.36 387.905H380.365C380.365 387.905 388.782 384.508 386.446 376.603C384.111 368.698 369.625 341.811 369.625 341.811H323.357Z" fill="white" stroke="#2E353A" stroke-linecap="round" stroke-linejoin="round"/>
<g style="mix-blend-mode:multiply">
<path d="M369.625 341.811H323.419C323.419 341.811 328.115 360.943 328.577 372.033H384.773C380.165 361.368 369.625 341.811 369.625 341.811Z" fill="#688589"/>
</g>
<path d="M379.903 388.067H280.36V390.128H379.903V388.067Z" fill="white" stroke="#2E353A" stroke-linecap="round" stroke-linejoin="round"/>
<path d="M489.461 119.699H210.29C204.441 119.699 199.7 124.44 199.7 130.289V334.381C199.7 340.23 204.441 344.971 210.29 344.971H489.461C495.309 344.971 500.05 340.23 500.05 334.381V130.289C500.05 124.44 495.309 119.699 489.461 119.699Z" fill="#688589" stroke="#2E353A" stroke-linecap="round" stroke-linejoin="round"/>
<path d="M482.38 119.699H203.209C197.36 119.699 192.619 124.44 192.619 130.289V334.381C192.619 340.23 197.36 344.971 203.209 344.971H482.38C488.228 344.971 492.97 340.23 492.97 334.381V130.289C492.97 124.44 488.228 119.699 482.38 119.699Z" fill="#2E353A" stroke="#2E353A" stroke-linecap="round" stroke-linejoin="round"/>
<path d="M192.619 309.942H492.97V334.356C492.97 337.165 491.854 339.858 489.868 341.844C487.882 343.83 485.188 344.946 482.38 344.946H203.209C200.4 344.946 197.707 343.83 195.721 341.844C193.735 339.858 192.619 337.165 192.619 334.356V309.942Z" fill="white" stroke="#2E353A" stroke-linecap="round" stroke-linejoin="round"/>
<path d="M477.872 133.71H207.73V292.858H477.872V133.71Z" fill="#688589" stroke="#2E353A" stroke-linecap="round" stroke-linejoin="round"/>
<path d="M348.333 327.45C348.333 326.353 348.007 325.281 347.398 324.368C346.788 323.456 345.921 322.746 344.907 322.326C343.893 321.907 342.778 321.798 341.702 322.013C340.626 322.228 339.638 322.757 338.863 323.534C338.088 324.311 337.561 325.3 337.348 326.376C337.136 327.453 337.248 328.568 337.669 329.581C338.091 330.594 338.803 331.459 339.717 332.067C340.63 332.674 341.703 332.997 342.801 332.995C343.528 332.995 344.249 332.851 344.921 332.573C345.593 332.294 346.203 331.885 346.717 331.37C347.231 330.855 347.638 330.244 347.915 329.571C348.193 328.898 348.335 328.178 348.333 327.45Z" fill="#2E353A" stroke="#2E353A" stroke-linecap="round" stroke-linejoin="round"/>
<path d="M475.337 144.925H209.853V158.874H475.337V144.925Z" fill="#2E353A" stroke="#2E353A" stroke-linecap="round" stroke-linejoin="round"/>
<path d="M253.648 158.886L250.476 150.269H209.853V158.886V170.313V286.077H475.337V158.886H253.648Z" fill="white" stroke="#2E353A" stroke-linecap="round" stroke-linejoin="round"/>
<path d="M400.458 391.352C400.458 391.352 402.169 395.485 411.597 396.921C421.026 398.357 484.615 390.915 484.615 390.915C484.615 390.915 488.611 389.916 488.899 387.917C489.186 385.919 478.608 380.062 459.04 377.627C442.01 375.673 424.76 377.629 408.6 383.347C396.462 387.78 400.458 391.352 400.458 391.352Z" fill="white" stroke="#2E353A" stroke-linecap="round" stroke-linejoin="round"/>
<g style="mix-blend-mode:multiply">
<path d="M473.638 384.346C469.392 384.346 459.789 384.795 451.971 385.47C444.154 386.144 431.204 391.052 424.061 393.5C416.917 395.947 405.528 395.298 405.528 395.298C407.476 396.09 409.515 396.636 411.597 396.921C421.026 398.345 484.615 390.915 484.615 390.915C486.009 390.567 487.296 389.88 488.362 388.916C484.328 385.994 477.11 384.346 473.638 384.346Z" fill="#688589"/>
</g>
<path d="M486.014 387.53C486.57 387.823 487.1 388.161 487.6 388.542" stroke="#2E353A" stroke-linecap="round" stroke-linejoin="round"/>
<path d="M407.464 395.922C414.09 396.119 420.69 395.003 426.883 392.638C440.018 387.467 453.978 384.704 468.093 384.483C476.298 384.421 481.318 385.545 484.328 386.681" stroke="#2E353A" stroke-linecap="round" stroke-linejoin="round"/>
<path d="M460.226 225.248H377.455V275.625H459.839" stroke="#2E353A" stroke-width="0.5" stroke-linecap="round" stroke-linejoin="round"/>
<path d="M377.83 239.609H460.601" stroke="#2E353A" stroke-width="0.5" stroke-linecap="round" stroke-linejoin="round"/>
<path d="M377.83 253.933H460.601" stroke="#2E353A" stroke-width="0.5" stroke-linecap="round" stroke-linejoin="round"/>
<path d="M377.83 268.257H460.601" stroke="#2E353A" stroke-width="0.5" stroke-linecap="round" stroke-linejoin="round"/>
<path d="M375.182 225.585H371.785" stroke="#2E353A" stroke-width="0.5" stroke-linecap="round" stroke-linejoin="round"/>
<path d="M375.182 232.678H371.785" stroke="#2E353A" stroke-width="0.5" stroke-linecap="round" stroke-linejoin="round"/>
<path d="M375.182 239.784H371.785" stroke="#2E353A" stroke-width="0.5" stroke-linecap="round" stroke-linejoin="round"/>
<path d="M375.182 246.89H371.785" stroke="#2E353A" stroke-width="0.5" stroke-linecap="round" stroke-linejoin="round"/>
<path d="M375.182 253.983H371.785" stroke="#2E353A" stroke-width="0.5" stroke-linecap="round" stroke-linejoin="round"/>
<path d="M375.182 261.089H371.785" stroke="#2E353A" stroke-width="0.5" stroke-linecap="round" stroke-linejoin="round"/>
<path d="M375.182 268.194H371.785" stroke="#2E353A" stroke-width="0.5" stroke-linecap="round" stroke-linejoin="round"/>
<path d="M375.182 275.288H371.785" stroke="#2E353A" stroke-width="0.5" stroke-linecap="round" stroke-linejoin="round"/>
<path d="M384.274 245.416H380.465V275.425H384.274V245.416Z" fill="#2E353A" stroke="#2E353A" stroke-linecap="round" stroke-linejoin="round"/>
<path d="M391.03 231.055H387.221V275.425H391.03V231.055Z" fill="#688589" stroke="#2E353A" stroke-linecap="round" stroke-linejoin="round"/>
<path d="M397.798 245.416H393.989V275.425H397.798V245.416Z" fill="white" stroke="#2E353A" stroke-linecap="round" stroke-linejoin="round"/>
<path d="M413.009 235.7H409.2V275.425H413.009V235.7Z" fill="#2E353A" stroke="#2E353A" stroke-linecap="round" stroke-linejoin="round"/>
<path d="M419.765 241.62H415.956V275.425H419.765V241.62Z" fill="#688589" stroke="#2E353A" stroke-linecap="round" stroke-linejoin="round"/>
<path d="M426.533 258.516H422.724V275.425H426.533V258.516Z" fill="white" stroke="#2E353A" stroke-linecap="round" stroke-linejoin="round"/>
<path d="M441.744 245.416H437.935V275.425H441.744V245.416Z" fill="#2E353A" stroke="#2E353A" stroke-linecap="round" stroke-linejoin="round"/>
<path d="M448.5 231.055H444.691V275.425H448.5V231.055Z" fill="#688589" stroke="#2E353A" stroke-linecap="round" stroke-linejoin="round"/>
<path d="M455.268 245.416H451.459V275.425H455.268V245.416Z" fill="white" stroke="#2E353A" stroke-linecap="round" stroke-linejoin="round"/>
<path opacity="0.4" d="M353.428 177.831L395.663 209.438V165.305L353.428 0.5V177.831Z" fill="#688589" stroke="white" stroke-linecap="round" stroke-linejoin="round"/>
<path opacity="0.4" d="M395.663 209.438H258.294L35.3943 177.831H353.428L395.663 209.438Z" fill="#688589" stroke="white" stroke-linecap="round" stroke-linejoin="round"/>
<path d="M353.428 0.5H35.3943V160.347H353.428V0.5Z" fill="black" stroke="#2E353A" stroke-linecap="round" stroke-linejoin="round"/>
<path d="M47.6576 8.79208H108.437" stroke="white" stroke-width="2" stroke-linecap="round" stroke-linejoin="round"/>
<path d="M345.336 8.0428C345.336 7.21732 345.091 6.4104 344.632 5.72421C344.173 5.03802 343.521 4.50342 342.758 4.1881C341.995 3.87277 341.156 3.79091 340.346 3.95286C339.537 4.11482 338.794 4.51332 338.211 5.09789C337.628 5.68247 337.232 6.42683 337.072 7.23675C336.913 8.04667 336.997 8.88571 337.315 9.64765C337.632 10.4096 338.169 11.0601 338.857 11.517C339.544 11.9738 340.352 12.2163 341.177 12.2138C341.724 12.2138 342.266 12.1058 342.771 11.8961C343.277 11.6863 343.736 11.3789 344.122 10.9914C344.508 10.6039 344.815 10.144 345.023 9.63803C345.231 9.13206 345.337 8.58996 345.336 8.0428Z" fill="white"/>
<path d="M327.515 8.0428C327.513 7.22086 327.267 6.41808 326.808 5.73585C326.35 5.05363 325.7 4.52257 324.939 4.20974C324.179 3.8969 323.344 3.81633 322.538 3.97819C321.732 4.14006 320.992 4.5371 320.412 5.11918C319.831 5.70125 319.437 6.44224 319.277 7.24858C319.118 8.05491 319.201 8.89041 319.516 9.64955C319.831 10.4087 320.364 11.0574 321.048 11.5138C321.731 11.9702 322.535 12.2138 323.357 12.2138C323.904 12.2138 324.446 12.1058 324.951 11.8961C325.456 11.6863 325.915 11.3789 326.302 10.9914C326.688 10.6039 326.994 10.144 327.202 9.63803C327.411 9.13206 327.517 8.58996 327.515 8.0428Z" fill="white"/>
<path d="M353.428 17.9833H35.3943V177.831H353.428V17.9833Z" fill="white" stroke="#2E353A" stroke-linecap="round" stroke-linejoin="round"/>
<path d="M338.442 34.6424H57.8728V162.845H337.606" stroke="#2E353A" stroke-width="0.5" stroke-linecap="round" stroke-linejoin="round"/>
<path d="M58.7095 71.1825H339.267" stroke="#2E353A" stroke-width="0.5" stroke-linecap="round" stroke-linejoin="round"/>
<path d="M58.7095 107.648H339.267" stroke="#2E353A" stroke-width="0.5" stroke-linecap="round" stroke-linejoin="round"/>
<path d="M58.7095 144.113H339.267" stroke="#2E353A" stroke-width="0.5" stroke-linecap="round" stroke-linejoin="round"/>
<path d="M52.8776 35.4666H45.3847" stroke="#2E353A" stroke-width="0.5" stroke-linecap="round" stroke-linejoin="round"/>
<path d="M52.8776 53.5493H45.3847" stroke="#2E353A" stroke-width="0.5" stroke-linecap="round" stroke-linejoin="round"/>
<path d="M52.8776 71.632H45.3847" stroke="#2E353A" stroke-width="0.5" stroke-linecap="round" stroke-linejoin="round"/>
<path d="M52.8776 89.7023H45.3847" stroke="#2E353A" stroke-width="0.5" stroke-linecap="round" stroke-linejoin="round"/>
<path d="M52.8776 107.785H45.3847" stroke="#2E353A" stroke-width="0.5" stroke-linecap="round" stroke-linejoin="round"/>
<path d="M52.8776 125.855H45.3847" stroke="#2E353A" stroke-width="0.5" stroke-linecap="round" stroke-linejoin="round"/>
<path d="M52.8776 143.938H45.3847" stroke="#2E353A" stroke-width="0.5" stroke-linecap="round" stroke-linejoin="round"/>
<path d="M52.8776 162.021H45.3847" stroke="#2E353A" stroke-width="0.5" stroke-linecap="round" stroke-linejoin="round"/>
<path d="M59.9583 71.8568C59.9583 71.8568 84.5099 72.9308 89.5051 69.609C94.5003 66.2872 101.169 59.6185 105.327 60.4427C109.836 61.609 114.283 63.0011 118.652 64.6138C118.652 64.6138 128.643 58.7818 131.14 58.7818C133.638 58.7818 141.955 62.9404 148.624 62.9404H167.768L175.261 68.7723L189.41 64.6138L205.232 71.2699L215.223 69.609L229.372 77.1018H236.04L249.352 82.9213H266.836L276.826 88.7532L292.649 89.5899L305.137 102.078L315.127 100.405L325.954 104.576L335.945 103.739" stroke="#688589" stroke-width="3" stroke-linecap="round" stroke-linejoin="round"/>
<path d="M59.5337 76.2651H90.3418L108.662 78.7628L123.647 79.5995L136.96 88.7532L156.116 82.9213L179.419 91.2508L205.232 87.0923L214.386 91.2508L235.203 67.9356H256.021L268.509 54.6233L281.821 60.4428L290.151 52.9499L300.978 58.7818L307.634 50.4523L311.793 51.289L322.62 47.9547L327.615 51.289L335.945 49.6281" stroke="#2E353A" stroke-width="3" stroke-linecap="round" stroke-linejoin="round"/>
<path d="M60.3704 157.85H92.8394L117.816 143.701L136.136 152.03H149.448L156.116 154.528L171.102 147.035L191.083 134.547L197.739 143.701L210.227 142.04L216.883 143.701L233.542 144.537L251.85 129.552L261.016 140.366L272.668 139.542L279.324 143.701L289.314 141.203L302.639 146.198L320.959 143.701L330.949 145.362L336.769 143.701" stroke="#688589" stroke-width="3" stroke-linecap="round" stroke-linejoin="round"/>
<path opacity="0.4" d="M259.131 189.494L333.222 221.089V276.874L259.131 357.659V189.494Z" fill="#688589" stroke="white" stroke-linecap="round" stroke-linejoin="round"/>
<path d="M259.131 189.494H95.337V349.342H259.131V189.494Z" fill="black" stroke="#2E353A" stroke-linecap="round" stroke-linejoin="round"/>
<path d="M259.131 206.978H95.337V357.671H259.131V206.978Z" fill="white" stroke="#2E353A" stroke-linecap="round" stroke-linejoin="round"/>
<path d="M176.06 281.706L111.122 281.644C111.011 272.913 112.72 264.255 116.138 256.22C119.557 248.186 124.611 240.951 130.978 234.976L176.06 281.706Z" fill="black" stroke="white" stroke-miterlimit="10"/>
<path d="M176.06 281.706L159.201 344.384C145.337 340.793 133.075 332.664 124.368 321.293C115.661 309.922 111.011 295.964 111.159 281.644L176.06 281.706Z" fill="black" stroke="white" stroke-miterlimit="10"/>
<path d="M178.97 283.53L209.503 226.247C223.533 233.776 234.308 246.198 239.78 261.151C245.252 276.105 245.039 292.547 239.181 307.354C233.324 322.16 222.231 334.299 208.01 341.462C193.79 348.625 177.433 350.314 162.048 346.207L178.97 283.53Z" fill="#688589" stroke="white" stroke-miterlimit="10"/>
<path d="M176.06 281.706L172.726 216.881C184.499 216.094 196.251 218.694 206.593 224.374L176.06 281.706Z" fill="black" stroke="white" stroke-miterlimit="10"/>
<path d="M176.06 281.706L131.015 234.976C142.099 223.841 157.022 217.367 172.726 216.881L176.06 281.706Z" fill="black" stroke="white" stroke-miterlimit="10"/>
<path d="M252.462 198.611C252.462 197.788 252.218 196.984 251.761 196.3C251.304 195.617 250.655 195.084 249.895 194.769C249.135 194.454 248.299 194.372 247.492 194.532C246.685 194.693 245.944 195.089 245.363 195.67C244.781 196.252 244.385 196.993 244.225 197.799C244.064 198.606 244.147 199.442 244.461 200.202C244.776 200.962 245.309 201.612 245.993 202.068C246.677 202.525 247.481 202.769 248.303 202.769C248.85 202.769 249.39 202.662 249.895 202.453C250.399 202.244 250.858 201.937 251.244 201.551C251.63 201.165 251.936 200.707 252.145 200.202C252.354 199.698 252.462 199.157 252.462 198.611Z" fill="white"/>
<path d="M234.654 198.611C234.656 197.785 234.414 196.978 233.957 196.29C233.5 195.603 232.85 195.066 232.088 194.748C231.326 194.431 230.487 194.346 229.677 194.506C228.867 194.665 228.123 195.062 227.538 195.645C226.953 196.227 226.555 196.971 226.393 197.78C226.231 198.589 226.313 199.429 226.628 200.192C226.944 200.954 227.478 201.607 228.164 202.065C228.851 202.524 229.657 202.769 230.483 202.769C231.587 202.769 232.646 202.332 233.428 201.552C234.21 200.773 234.651 199.715 234.654 198.611Z" fill="white"/>
<g style="mix-blend-mode:multiply" opacity="0.73">
<path d="M259.131 206.978H95.337V226.297H259.131V206.978Z" fill="#688589"/>
<path d="M259.131 206.978H95.337V226.297H259.131V206.978Z" stroke="white" stroke-linecap="round" stroke-linejoin="round"/>
</g>
</svg>
